<svg width="50" height="50" viewBox="0 0 50 50" fill="none" xmlns="http://www.w3.org/2000/svg">
<rect x="49" y="49" width="48" height="48" rx="24" transform="rotate(-180 49 49)" fill="#4E34FF" stroke="white" stroke-width="2"/>
<path d="M34.2071 25.7071C34.5976 25.3166 34.5976 24.6834 34.2071 24.2929L27.8431 17.9289C27.4526 17.5384 26.8195 17.5384 26.4289 17.9289C26.0384 18.3195 26.0384 18.9526 26.4289 19.3431L32.0858 25L26.4289 30.6569C26.0384 31.0474 26.0384 31.6805 26.4289 32.0711C26.8195 32.4616 27.4526 32.4616 27.8431 32.0711L34.2071 25.7071ZM14.75 26L33.5 26L33.5 24L14.75 24L14.75 26Z" fill="white"/>
</svg>
