<?xml version="1.0" encoding="utf-8"?>
<!-- Generator: Adobe Illustrator 25.2.1, SVG Export Plug-In . SVG Version: 6.00 Build 0)  -->
<svg version="1.1" id="Layer_1" xmlns="http://www.w3.org/2000/svg" xmlns:xlink="http://www.w3.org/1999/xlink" x="0px" y="0px"
	 width="50px" height="50px" viewBox="0 0 50 50" style="enable-background:new 0 0 50 50;" xml:space="preserve">
<style type="text/css">
	.st0{fill:#4E34FF;stroke:#FFFFFF;stroke-width:2;}
	.st1{fill:#FFFFFF;}
</style>
<path class="st0" d="M1,25L1,25C1,11.7,11.7,1,25,1l0,0c13.3,0,24,10.7,24,24l0,0c0,13.3-10.7,24-24,24l0,0C11.7,49,1,38.3,1,25z"/>
<path class="st1" d="M15.8,24.3c-0.4,0.4-0.4,1,0,1.4l6.4,6.4c0.4,0.4,1,0.4,1.4,0c0.4-0.4,0.4-1,0-1.4L17.9,25l5.7-5.7
	c0.4-0.4,0.4-1,0-1.4c-0.4-0.4-1-0.4-1.4,0L15.8,24.3z M35.2,24H16.5v2h18.8V24z"/>
</svg>
