<svg width="97" height="42" viewBox="0 0 97 42" fill="none" xmlns="http://www.w3.org/2000/svg">
<path d="M43.6 40.9501C43.575 40.9501 43.55 40.9501 43.525 40.9376L37.2375 39.3501C37.1 39.3126 37 39.1876 37 39.0501V2.9626C37 2.8251 37.1 2.7001 37.2375 2.6626L43.525 1.0626C43.575 1.0501 43.625 1.0501 43.675 1.0626L49.95 2.6501C50.0875 2.6876 50.1875 2.8126 50.1875 2.9501V39.0376C50.1875 39.1751 50.0875 39.3001 49.95 39.3376L43.6625 40.9376C43.65 40.9501 43.625 40.9501 43.6 40.9501ZM38.55 39.0501L43.5875 40.3251L48.625 39.0376L43.5875 37.7251L38.55 39.0501ZM37.625 3.3626V38.6626L43.2875 37.1751V4.8126L37.625 3.3626ZM43.9125 37.1626L49.575 38.6376V3.3501L43.9125 4.8126V37.1626ZM38.5625 2.9626L43.5875 4.2501L48.6125 2.9501L43.5875 1.6751L38.5625 2.9626ZM8.4375 40.9376C8.4 40.9376 8.35 40.9251 8.3125 40.9126L1.25 37.8501C1.1375 37.8001 1.0625 37.6876 1.0625 37.5626V5.2376C1.0625 5.1376 1.1125 5.0376 1.2 4.9751L6.9375 1.2001C6.9875 1.1626 7.05 1.1501 7.1125 1.1501C15.475 1.1501 23.275 4.5376 26.5375 9.5751C30.15 15.1751 29.5125 22.3126 29.475 22.7126C29.475 23.9376 29.35 25.6501 29.0375 26.8876C27.7125 32.2126 23.725 36.3251 17.5125 38.7876C14.6125 39.9126 11.5625 40.6376 8.4625 40.9126L8.4375 40.9376ZM2.8 37.8376L8.5 40.3001C11.5125 40.0126 14.4875 39.3126 17.3125 38.2126C21.5 36.5501 26.8375 33.2126 28.45 26.7376C28.775 25.4251 28.8875 23.5501 28.8625 22.3626C28.4125 12.2251 19.8625 9.3876 12.6125 8.8126V12.3876L12.8 12.4376C15.525 13.1626 21.9125 14.8626 22.875 21.1751C23.1125 22.4251 22.9875 27.0001 20.425 30.5251C17.45 34.6001 10.35 37.5126 2.8 37.8376ZM1.6875 5.4001V37.2501C9.45 37.1751 16.9 34.2876 19.9 30.1626C20.65 29.1251 21.2125 27.9626 21.6 26.7501C21.25 27.2626 20.85 27.7251 20.4 28.1501C18.875 29.6001 16.7 30.6876 14.0875 31.3001C11.7875 31.8501 9.4125 31.9876 7.075 31.7126C6.925 31.6876 6.8 31.5626 6.8 31.4001V2.0251L1.6875 5.4001ZM7.425 31.1501C8.9375 31.3001 10.4625 31.2751 11.975 31.0751V8.4876C11.975 8.3126 12.1125 8.1751 12.2875 8.1751C12.3 8.1751 12.3 8.1751 12.3125 8.1751C21.225 8.8001 26.8125 12.2126 28.7375 18.1251C28.45 15.6501 27.7375 12.5751 26.0125 9.9126C22.9125 5.1001 15.4625 1.8501 7.425 1.7626V31.1501ZM12.6 13.0501V30.9876C15.35 30.5376 18.1 29.5126 19.975 27.7126C21.6875 26.0876 22.4625 24.0376 22.2875 21.6251C22.275 21.5001 22.2625 21.3876 22.2375 21.3001C21.3375 15.3751 15.225 13.7501 12.6125 13.0501H12.6ZM63.525 40.8876H58.35C58.2375 40.8876 58.1375 40.8251 58.0875 40.7376L54.8375 35.4126C54.7875 35.3251 54.775 35.2126 54.825 35.1251L70.5125 1.3501C70.5625 1.2376 70.675 1.1751 70.7875 1.1751H79.2C79.325 1.1751 79.4375 1.2501 79.4875 1.3501L95.9 37.3001C95.95 37.4251 95.925 37.5626 95.825 37.6626L92.4125 40.7876C92.35 40.8376 92.275 40.8751 92.2 40.8626H86.5125C86.3875 40.8626 86.2875 40.7876 86.2375 40.6876L83 33.7001H67.075L63.8 40.7001C63.7625 40.8126 63.65 40.8876 63.525 40.8876ZM58.8375 40.2626H63.325L66.6 33.2626C66.65 33.1501 66.7625 33.0876 66.875 33.0876H83.075L85.8375 30.5376H68.3375C68.1625 30.5376 68.025 30.4001 68.025 30.2251C68.025 30.1751 68.0375 30.1376 68.05 30.1001L74.6625 15.7126L72.45 10.9251L58.8375 40.2626ZM87.3125 40.2376H92.0875L94.8125 37.7376H90.0375L87.3125 40.2376ZM83.575 33.4626L86.625 40.0376L89.55 37.3501L86.5375 30.7501L83.575 33.4626ZM55.4625 35.2251L58.3125 39.9126L72.175 10.0501C72.225 9.9376 72.3375 9.8751 72.45 9.8751C72.575 9.8751 72.675 9.9501 72.725 10.0501L79.6875 25.0876H83.9375L73.3125 1.7876H70.9875L55.4625 35.2251ZM68.825 29.9126H86.6375C86.7625 29.9126 86.875 29.9876 86.925 30.1001L90.125 37.1251H95.1375L79.0125 1.8001H74L84.7125 25.2751C84.7875 25.4251 84.7125 25.6126 84.5625 25.6876C84.525 25.7126 84.475 25.7126 84.4375 25.7126H70.7625L68.825 29.9126ZM71.05 25.0876H79.025L75.025 16.4501L71.05 25.0876Z" fill="white" stroke="white" stroke-width="0.358333" stroke-miterlimit="10"/>
</svg>
